<svg width="343" height="47" viewBox="0 0 343 47" fill="none" xmlns="http://www.w3.org/2000/svg">
<path d="M23.664 46.96C19.3547 46.96 15.4293 45.9573 11.888 43.952C8.34667 41.904 5.57333 39.1093 3.568 35.568C1.56267 31.984 0.56 28.016 0.56 23.664C0.56 17.008 2.75733 11.44 7.152 6.96C11.5893 2.48 17.0933 0.239998 23.664 0.239998C29.1253 0.239998 33.84 1.88266 37.808 5.168C41.776 8.45333 44.2933 12.7627 45.36 18.096H35.632C35.0347 16.3467 34.16 14.832 33.008 13.552C31.856 12.2293 30.4693 11.2267 28.848 10.544C27.2693 9.81866 25.5413 9.456 23.664 9.456C19.8667 9.456 16.688 10.8213 14.128 13.552C11.6107 16.24 10.352 19.6107 10.352 23.664C10.352 27.6747 11.6107 31.024 14.128 33.712C16.688 36.4 19.8667 37.744 23.664 37.744C26.608 37.744 29.1467 36.912 31.28 35.248C33.4133 33.584 34.8853 31.3227 35.696 28.464H45.488C44.464 34.0107 41.9467 38.4907 37.936 41.904C33.968 45.2747 29.2107 46.96 23.664 46.96ZM77.135 46L68.431 30.704H62.223V46H52.495V1.2H70.607C73.551 1.2 76.2177 1.84 78.607 3.12C80.9963 4.35733 82.8523 6.10667 84.175 8.368C85.5403 10.6293 86.223 13.1893 86.223 16.048C86.223 18.9067 85.4977 21.488 84.047 23.792C82.5963 26.096 80.6123 27.8453 78.095 29.04L88.015 46H77.135ZM62.223 10.16V21.744H69.967C71.9297 21.744 73.487 21.2107 74.639 20.144C75.8337 19.0773 76.431 17.6907 76.431 15.984C76.431 14.832 76.175 13.8293 75.663 12.976C75.151 12.08 74.4043 11.3973 73.423 10.928C72.4417 10.416 71.2897 10.16 69.967 10.16H62.223ZM129.62 1.2L113.876 27.888V46H103.892V27.824L88.2755 1.2H98.5795L108.948 19.12L119.316 1.2H129.62ZM148.593 46.896C143.388 46.896 139.185 45.5307 135.985 42.8C132.828 40.0267 131.249 36.2507 131.249 31.472H141.041C141.041 32.5387 141.233 33.4987 141.617 34.352C142.044 35.1627 142.598 35.824 143.281 36.336C144.006 36.848 144.817 37.232 145.713 37.488C146.609 37.744 147.548 37.872 148.529 37.872C150.492 37.872 152.177 37.4027 153.585 36.464C155.036 35.5253 155.761 34.2453 155.761 32.624C155.761 31.9413 155.59 31.344 155.249 30.832C154.908 30.2773 154.502 29.8507 154.033 29.552C153.606 29.2107 152.924 28.8693 151.985 28.528C151.089 28.1867 150.321 27.9307 149.681 27.76C149.041 27.5893 148.081 27.3547 146.801 27.056C145.777 26.8 145.009 26.608 144.497 26.48C143.985 26.352 143.217 26.1387 142.193 25.84C141.212 25.5413 140.444 25.2853 139.889 25.072C139.377 24.816 138.694 24.4747 137.841 24.048C136.988 23.6213 136.326 23.1947 135.857 22.768C135.388 22.3413 134.854 21.808 134.257 21.168C133.702 20.528 133.276 19.8667 132.977 19.184C132.678 18.4587 132.422 17.648 132.209 16.752C131.996 15.8133 131.889 14.832 131.889 13.808C131.889 9.54133 133.34 6.23466 136.241 3.888C139.142 1.54133 143.11 0.367996 148.145 0.367996C153.222 0.367996 157.169 1.648 159.985 4.208C162.844 6.768 164.273 10.288 164.273 14.768H154.673C154.673 12.9333 154.012 11.5467 152.689 10.608C151.409 9.62666 149.809 9.136 147.889 9.136C146.182 9.136 144.689 9.49866 143.409 10.224C142.172 10.9493 141.553 11.9947 141.553 13.36C141.553 14 141.702 14.576 142.001 15.088C142.342 15.5573 142.726 15.9627 143.153 16.304C143.58 16.6027 144.241 16.9227 145.137 17.264C146.033 17.5627 146.78 17.7973 147.377 17.968C148.017 18.096 148.956 18.3093 150.193 18.608C151.558 18.9493 152.582 19.2267 153.265 19.44C153.948 19.6107 154.929 19.9307 156.209 20.4C157.489 20.8267 158.47 21.2533 159.153 21.68C159.878 22.1067 160.71 22.6827 161.649 23.408C162.588 24.0907 163.292 24.8587 163.761 25.712C164.273 26.5227 164.7 27.5253 165.041 28.72C165.425 29.872 165.617 31.1307 165.617 32.496C165.617 35.6107 164.828 38.2773 163.249 40.496C161.67 42.7147 159.622 44.336 157.105 45.36C154.63 46.384 151.793 46.896 148.593 46.896ZM203.47 1.2V10.224H190.99V46H181.262V10.224H168.846V1.2H203.47ZM235.38 46L232.244 37.488H214.388L211.316 46H201.076L218.612 1.2H227.764L245.876 46H235.38ZM223.284 13.04L217.46 29.04H229.172L223.284 13.04ZM261.286 36.976H278.438V46H251.558V1.2H261.286V36.976ZM284.995 46V1.2H294.723V46H284.995ZM333.349 1.2H342.821V46H334.757L314.469 18.032V46H304.933V1.2H313.701L333.349 28.528V1.2Z" fill="white"/>
</svg>
